# AST/ASF file generated using VICON BodyLanguage
# -----------------------------------------------
:version 1.10
:name VICON
:units
  mass 1.0
  length 0.45
  angle deg
:documentation
   .ast/.asf automatically generated from VICON data using
   VICON BodyBuilder and BodyLanguage model FoxedUp or BRILLIANT.MOD
:root
   order TX TY TZ RX RY RZ
   axis XYZ
   position 0 0 0  
   orientation 0 0 0 
:bonedata
  begin
     id 1 
     name lhipjoint
     direction 0.610259 -0.730986 0.305356 
     length 2.50941 
     axis 0 0 0  XYZ
  end
  begin
     id 2 
     name lfemur
     direction 0.34202 -0.939693 0  
     length 7.48822  
     axis 0 0 20  XYZ
    dof rx ry rz
    limits (-160.0 20.0)
           (-70.0 70.0)
           (-60.0 70.0)
  end
  begin
     id 3 
     name ltibia
     direction 0.34202 -0.939693 0   
     length 7.60141   
     axis 0 0 20   XYZ
    dof rx
    limits (-10.0 170.0)
  end
  begin
     id 4 
     name lfoot
     direction 0.0673488 -0.185039 0.980421   
     length 2.04049   
     axis -90 7.62852e-016 20   XYZ
    dof rx rz
    limits (-45.0 90.0)
           (-70.0 20.0)
  end
  begin
     id 5 
     name ltoes
     direction 1.5356e-011 -4.21729e-011 1   
     length 1.02897   
     axis -90 7.62852e-016 20   XYZ
    dof rx
    limits (-90.0 20.0)
  end
  begin
     id 6 
     name rhipjoint
     direction -0.57612 -0.754205 0.315056   
     length 2.43216  
     axis 0 0 0  XYZ 
  end
  begin
     id 7 
     name rfemur
     direction -0.34202 -0.939693 0   
     length 7.42799   
     axis 0 0 -20   XYZ
    dof rx ry rz
    limits (-160.0 20.0)
           (-70.0 70.0)
           (-70.0 60.0)
  end
  begin
     id 8 
     name rtibia
     direction -0.34202 -0.939693 0   
     length 7.69484   
     axis 0 0 -20   XYZ
    dof rx
    limits (-10.0 170.0)
 end
 begin
     id 9 
     name rfoot
     direction -0.111837 -0.30727 0.945028   
     length 2.15769  
     axis -90 -7.62852e-016 -20   XYZ
    dof rx rz
    limits (-45.0 90.0)
           (-20.0 70.0)
  end
  begin
     id 10 
     name rtoes
     direction -1.53539e-011 -4.21878e-011 1   
     length 1.07391   
     axis -90 -7.62852e-016 -20   XYZ
    dof rx
    limits (-90.0 20.0)
  end
  begin
     id 11 
     name lowerback
     direction 0.00552624 0.990109 -0.140195   
     length 2.12403   
     axis 0 0 0   XYZ
    dof rx ry rz
    limits (-20.0 45.0)
           (-30.0 30.0)
           (-30.0 30.0)
  end
  begin
     id 12 
     name upperback
     direction 0.00361898 0.999976 -0.00584723   
     length 2.13232   
     axis 0 0 0   XYZ
    dof rx ry rz
    limits (-20.0 45.0)
           (-30.0 30.0)
           (-30.0 30.0)
  end
  begin
     id 13 
     name thorax
     direction -0.000331275 0.998253 0.0590847   
     length 2.17688   
     axis 0 0 0   XYZ
    dof rx ry rz
    limits (-20.0 45.0)
           (-30.0 30.0)
           (-30.0 30.0)
  end
  begin
     id 14 
     name lowerneck
     direction -0.0561561 0.979832 0.19177   
     length 1.64159   
     axis 0 0 0   XYZ
    dof rx ry rz
    limits (-20.0 45.0)
           (-30.0 30.0)
           (-30.0 30.0)
  end
  begin
     id 15 
     name upperneck
     direction 0.0827153 0.979385 -0.184293   
     length 1.68939   
     axis 0 0 0   XYZ
    dof rx ry rz
    limits (-20.0 45.0)
           (-30.0 30.0)
           (-30.0 30.0)
  end
  begin
     id 16
     name head
     direction 0.0278583 0.995936 -0.0856488  
     length 1.70207  
     axis 0 0 0   XYZ
    dof rx ry rz
    limits (-20.0 45.0)
           (-30.0 30.0)
           (-30.0 30.0)
  end
  begin
     id 17 
     name lclavicle
     direction 0.950993 0.301131 -0.0702275  
     length 3.41652  
     axis 0 0 0   XYZ
    dof ry rz
    limits (-20.0 10.0)
           (0.0 20.0)
  end
  begin
     id 18 
     name lhumerus
     direction 1 -4.48981e-011 -3.9662e-029   
     length 5.32955   
     axis 180 -30 -90   XYZ
    dof rx ry rz
    limits (-60.0 90.0)
           (-90.0 90.0)
           (-90.0 90.0)
  end
  begin
     id 19
     name lradius
     direction 1 -4.48925e-011 -9.0549e-027   
     length 3.69232   
     axis 180 -30 -90   XYZ
    dof rx
    limits (-10.0 170.0)
  end
  begin
     id 20
     name lwrist
     direction 1 -4.49007e-011 -1.49005e-026   
     length 1.84616   
     axis 9.0955e-015 90 90   XYZ
    dof ry
    limits (-180.0 0.0)
 end
  begin
     id 21 
     name lhand
     direction 1 -4.49016e-011 -2.98023e-026   
     length 0.536598   
     axis 1.90115e-014 90 90   XYZ
    dof rx rz
    limits (-90.0 90.0)
           (-45.0 45.0)
  end
  begin
     id 22 
     name lfingers
     direction 1 -4.48924e-011 -5.9578e-026   
     length 0.432619   
     axis 3.80223e-014 90 90   XYZ
    dof rx
    limits (0.0 90.0)
  end
  begin
     id 23
     name lthumb
     direction 0.707107 -6.34947e-011 0.707107   
     length 0.621157   
     axis -90 45 -3.84942e-014   XYZ
    dof rx rz
    limits (-45.0 45.0)
           (-45.0 45.0)
  end
  begin
     id 24 
     name rclavicle
     direction -0.955495 0.276497 -0.102848   
     length 3.36357  
     axis 0 0 0   XYZ 
    dof ry rz
    limits (-10.0 20.0)
           (-20.0 0.0)
  end
  begin
     id 25 
     name rhumerus
     direction -1 -4.48961e-011 3.30983e-027  
     length 5.23431   
     axis 180 30 90   XYZ
    dof rx ry rz
    limits (-90.0 60.0)
           (-90.0 90.0)
           (-90.0 90.0)
  end
  begin
     id 26 
     name rradius
     direction -1 -4.48965e-011 -6.63263e-027   
     length 3.55301   
     axis 180 30 90   XYZ
    dof rx
    limits (-10.0 170.0)
  end
  begin
     id 27 
     name rwrist
     direction -1 -4.48942e-011 -1.48958e-026   
     length 1.77651   
     axis 9.0955e-015 -90 -90   XYZ
    dof ry
    limits (-180.0 0.0)
  end
  begin
     id 28
     name rhand
     direction -1 -4.48977e-011 -2.97966e-026   
     length 0.772522   
     axis 1.90115e-014 -90 -90   XYZ
    dof rx rz
    limits (-90.0 90.0)
           (-45.0 45.0)
  end
  begin
     id 29
     name rfingers
     direction -1 -4.49135e-011 -5.96389e-026   
     length 0.622827   
     axis 3.80223e-014 -90 -90   XYZ
    dof rx
    limits (0.0 90.0)
  end
  begin
     id 30
     name rthumb
     direction -0.707107 -6.34969e-011 0.707107   
     length 0.894259   
     axis -90 -45 3.84942e-014   XYZ
    dof rx rz
    limits (-45.0 45.0)
           (-45.0 45.0)
  end
:hierarchy
  begin
    root lhipjoint rhipjoint lowerback
    lhipjoint lfemur
    lfemur ltibia
    ltibia lfoot
    lfoot ltoes
    rhipjoint rfemur
    rfemur rtibia
    rtibia rfoot
    rfoot rtoes
    lowerback upperback
    upperback thorax
    thorax lowerneck lclavicle rclavicle
    lowerneck upperneck
    upperneck head
    lclavicle lhumerus
    lhumerus lradius
    lradius lwrist
    lwrist lhand lthumb
    lhand lfingers
    rclavicle rhumerus
    rhumerus rradius
    rradius rwrist
    rwrist rhand rthumb
    rhand rfingers
  end

#!OML:ASF F:\VICON\USERDATA\INSTALL\rory3\rory3.ASF
:FULLY-SPECIFIED
:DEGREES
40
root -9.10172 17.7369 -10.1348 -33.4607 -82.3127 31.4154
lowerback 12.4888 2.25763 2.17596
upperback 0.811585 3.26879 0.0872332
thorax -6.02849 1.52847 -1.69984
lowerneck -18.9041 6.89504 -6.69034
upperneck 41.4855 11.0269 2.98705
head 18.0737 3.34183 4.62579
rclavicle 7.11649e-014 -2.38542e-015
rhumerus -33.9022 -17.3966 -68.2672
rradius 29.4936
rwrist 7.70161
rhand -17.329 9.18119
rfingers 7.12502
rthumb 8.91788 -20.6103
lclavicle 7.11649e-014 -2.38542e-015
lhumerus -32.3277 14.6408 78.2208
lradius 33.4656
lwrist -4.03272
lhand -18.9408 22.4713
lfingers 7.12502
lthumb 7.36227 52.3232
rfemur -2.2246 -2.36413 18.2478
rtibia 30.6414
rfoot -20.6449 -7.54491
rtoes 4.34108
lfemur -14.5572 -2.24845 -18.9851
ltibia 36.6657
lfoot -12.4476 9.76049
ltoes -3.27747
41
root -9.10867 17.7556 -10.0756 -33.5867 -82.1515 31.4297
lowerback 12.6105 2.26883 1.99418
upperback 0.811244 3.25914 0.0656091
thorax -6.10604 1.52668 -1.62487
lowerneck -19.0183 6.82153 -6.57398
upperneck 41.4333 10.8917 2.97157
head 18.0952 3.30666 4.58122
rclavicle 7.31031e-014 1.59028e-015
rhumerus -34.1107 -18.1331 -67.8637
rradius 29.5373
rwrist 6.93116
rhand -17.7356 8.81765
rfingers 7.12502
rthumb 8.52549 -20.9902
lclavicle 7.31031e-014 1.59028e-015
lhumerus -32.5471 14.5302 78.1908
lradius 33.096
lwrist -4.60599
lhand -19.036 22.3276
lfingers 7.12502
lthumb 7.27042 52.1827
rfemur -1.72352 -2.24493 17.98
rtibia 30.0168
rfoot -20.3245 -7.80966
rtoes 3.47142
lfemur -14.4513 -2.41472 -18.4876
ltibia 36.2431
lfoot -11.5996 10.9246
ltoes -3.09533
42
root -9.11664 17.7753 -10.0202 -34.206 -81.9378 31.9972
lowerback 12.6914 2.28265 1.72617
upperback 0.787404 3.235 -0.0408178
thorax -6.18595 1.51943 -1.58683
lowerneck -19.0319 6.74713 -6.55411
upperneck 41.2807 10.7043 3.12492
head 18.0072 3.27494 4.60511
rclavicle -2.34069e-014 -1.11319e-014
rhumerus -34.3643 -18.8464 -67.5741
rradius 29.618
rwrist 6.24875
rhand -17.9743 8.63425
rfingers 7.12502
rthumb 8.29509 -21.1829
lclavicle -2.34069e-014 -1.11319e-014
lhumerus -32.6846 14.234 78.1032
lradius 32.672
lwrist -5.01331
lhand -19.1244 22.1976
lfingers 7.12502
lthumb 7.18503 52.0556
rfemur -1.31265 -2.12918 17.6195
rtibia 29.4473
rfoot -20.0542 -8.01757
rtoes 2.90093
lfemur -14.4203 -2.47045 -18.0382
ltibia 35.7598
lfoot -10.9342 11.6696
ltoes -1.61445
43
root -9.12076 17.7899 -9.96363 -33.7308 -81.8693 31.4951
lowerback 12.7729 2.32132 1.6995
upperback 0.769879 3.27932 -0.116876
thorax -6.2454 1.53972 -1.66404
lowerneck -19.1311 6.63993 -6.51835
upperneck 41.1903 10.4785 3.2667
head 17.9853 3.22037 4.62468
rclavicle -2.61402e-014 -3.97569e-015
rhumerus -34.6237 -19.6031 -67.2973
rradius 29.7255
rwrist 5.59044
rhand -18.221 8.34621
rfingers 7.12502
rthumb 8.05701 -21.4802
lclavicle -2.61402e-014 -3.97569e-015
lhumerus -32.7325 14.1995 77.9384
lradius 32.291
lwrist -5.49089
lhand -18.8696 21.9832
lfingers 7.12502
lthumb 7.43105 51.8327
rfemur -0.972168 -1.95555 17.4917
rtibia 28.9154
rfoot -19.9297 -8.16276
rtoes 3.54118
lfemur -14.3703 -2.58738 -17.3272
ltibia 35.2088
lfoot -10.325 12.0638
ltoes 0.389597
44
root -9.12491 17.8037 -9.90128 -33.4482 -81.8901 31.233
lowerback 12.7903 2.37208 1.6631
upperback 0.747695 3.34305 -0.108543
thorax -6.27888 1.57149 -1.64761
lowerneck -19.1581 6.55156 -6.6101
upperneck 41.0329 10.3412 3.36473
head 17.8945 3.18264 4.65099
rclavicle -5.42185e-014 -3.18055e-015
rhumerus -34.8232 -19.9406 -67.0782
rradius 29.8743
rwrist 4.71193
rhand -18.5057 8.15483
rfingers 7.12502
rthumb 7.78229 -21.6819
lclavicle -5.42185e-014 -3.18055e-015
lhumerus -32.8576 14.5201 77.806
lradius 31.9549
lwrist -6.07754
lhand -18.6508 21.9524
lfingers 7.12502
lthumb 7.64225 51.7943
rfemur -0.686403 -1.65332 17.3856
rtibia 28.4069
rfoot -19.8549 -8.35982
rtoes 4.51355
lfemur -14.2869 -2.62722 -16.6027
ltibia 34.5917
lfoot -9.58954 12.1959
ltoes 0.441992
45
root -9.13487 17.8164 -9.83973 -34.1187 -81.8655 31.9047
lowerback 12.7554 2.40151 1.41426
upperback 0.768731 3.34665 -0.0867376
thorax -6.2526 1.58101 -1.48338
lowerneck -19.2343 6.48816 -6.75487
upperneck 40.8867 10.2872 3.42203
head 17.818 3.16123 4.68602
rclavicle -4.08502e-014 -1.35174e-014
rhumerus -34.8316 -19.9911 -66.9886
rradius 29.8961
rwrist 4.00937
rhand -18.8006 8.23098
rfingers 7.12502
rthumb 7.49764 -21.6161
lclavicle -4.08502e-014 -1.35174e-014
lhumerus -33.052 14.9733 77.6689
lradius 31.6682
lwrist -6.57097
lhand -18.71 21.8614
lfingers 7.12502
lthumb 7.58506 51.7054
rfemur -0.340704 -1.28847 17.1473
rtibia 27.903
rfoot -19.7418 -8.72458
rtoes 4.61941
lfemur -14.1359 -2.70418 -16.0283
ltibia 33.9243
lfoot -8.68118 12.1671
ltoes -0.495548
46
root -9.14425 17.8262 -9.77768 -34.7415 -81.788 32.5252
lowerback 12.7381 2.40697 1.22331
upperback 0.786278 3.32024 -0.170798
thorax -6.23092 1.57261 -1.45856
lowerneck -19.4033 6.43028 -6.73035
upperneck 40.8031 10.1773 3.50317
head 17.8162 3.13918 4.70515
rclavicle 2.35063e-014 0
rhumerus -34.8593 -20.1795 -67.0007
rradius 29.9184
rwrist 3.60647
rhand -18.9328 8.21507
rfingers 7.12502
rthumb 7.37005 -21.6366
lclavicle 2.35063e-014 0
lhumerus -33.1923 15.2212 77.4047
lradius 31.4019
lwrist -6.72152
lhand -18.8279 21.8952
lfingers 7.12502
lthumb 7.47126 51.7433
rfemur 0.00561777 -0.977525 16.8829
rtibia 27.3987
rfoot -19.5698 -9.07532
rtoes 4.16374
lfemur -13.9976 -2.87878 -15.45
ltibia 33.226
lfoot -7.73145 11.8538
ltoes 0.176594
47
root -9.15307 17.8382 -9.70739 -34.8292 -81.7192 32.6325
lowerback 12.6959 2.41534 1.23975
upperback 0.806537 3.32607 -0.27218
thorax -6.17857 1.57453 -1.5725
lowerneck -19.5708 6.36232 -6.72245
upperneck 40.6424 10.0613 3.58263
head 17.7694 3.12036 4.71985
rclavicle 2.56432e-014 -7.95139e-015
rhumerus -34.9735 -20.5474 -66.9271
rradius 30.0231
rwrist 3.42981
rhand -18.9657 8.04218
rfingers 7.12502
rthumb 7.33822 -21.8106
lclavicle 2.56432e-014 -7.95139e-015
lhumerus -33.222 15.4524 77.176
lradius 31.0745
lwrist -6.92582
lhand -19.2026 22.1457
lfingers 7.12502
lthumb 7.10959 52.0063
rfemur 0.327613 -0.77759 16.6203
rtibia 26.9051
rfoot -19.3919 -9.22524
rtoes 4.36617
lfemur -13.8517 -3.21424 -14.8195
ltibia 32.5166
lfoot -6.685 11.4006
ltoes 2.1574
48
root -9.16021 17.8478 -9.63609 -34.6461 -81.742 32.3657
lowerback 12.7976 2.44436 1.32922
upperback 0.8335 3.37443 -0.31389
thorax -6.19739 1.59446 -1.67919
lowerneck -19.6995 6.32617 -6.65985
upperneck 40.5088 10.0075 3.5694
head 17.7371 3.11818 4.69418
rclavicle 9.24349e-015 -6.36111e-015
rhumerus -35.0732 -20.8365 -66.8374
rradius 30.0822
rwrist 3.53507
rhand -19.0312 8.02265
rfingers 7.12502
rthumb 7.27504 -21.8323
lclavicle 9.24349e-015 -6.36111e-015
lhumerus -33.2192 15.6019 76.9962
lradius 30.7126
lwrist -6.88903
lhand -19.6458 22.4343
lfingers 7.12502
lthumb 6.68176 52.3088
rfemur 0.712866 -0.705248 16.419
rtibia 26.4558
rfoot -19.2387 -9.19472
rtoes 4.45872
lfemur -13.5629 -3.57554 -14.105
ltibia 31.7989
lfoot -5.64018 10.9779
ltoes 3.40065
49
root -9.16619 17.853 -9.56548 -33.6862 -81.7816 31.3854
lowerback 12.853 2.428 1.49542
upperback 0.822133 3.37656 -0.32801
thorax -6.22977 1.59007 -1.79083
lowerneck -19.7383 6.31621 -6.602
upperneck 40.3861 9.9947 3.52519
head 17.6872 3.12637 4.65704
rclavicle -2.48481e-014 1.43125e-014
rhumerus -35.1017 -20.8494 -66.8872
rradius 30.096
rwrist 3.61374
rhand -19.2954 8.1813
rfingers 7.12502
rthumb 7.02 -21.6823
lclavicle -2.48481e-014 1.43125e-014
lhumerus -33.2844 15.7843 76.7741
lradius 30.4393
lwrist -6.65507
lhand -19.7272 22.7531
lfingers 7.12502
lthumb 6.60316 52.6301
rfemur 1.00093 -0.632318 16.3476
rtibia 26.035
rfoot -19.0631 -9.27587
rtoes 3.90779
lfemur -13.395 -3.88064 -13.2648
ltibia 31.1079
lfoot -4.6151 10.4397
ltoes 3.75869
50
root -9.17376 17.8552 -9.49623 -33.149 -81.7622 30.8686
lowerback 12.8314 2.4059 1.50122
upperback 0.820536 3.34665 -0.346889
thorax -6.21903 1.57527 -1.80763
lowerneck -19.7815 6.27255 -6.68307
upperneck 40.2551 9.94178 3.58247
head 17.6169 3.11372 4.68047
rclavicle 2.13694e-015 -3.18055e-015
rhumerus -35.0358 -20.4751 -67.1254
rradius 30.1184
rwrist 3.38249
rhand -19.0121 8.28586
rfingers 7.12502
rthumb 7.29346 -21.5684
lclavicle 2.13694e-015 -3.18055e-015
lhumerus -33.4272 16.2389 76.4672
lradius 30.2648
lwrist -6.92613
lhand -19.4723 23.0275
lfingers 7.12502
lthumb 6.84928 52.8967
rfemur 1.25596 -0.441468 16.2173
rtibia 25.6155
rfoot -18.8288 -9.54659
rtoes 2.88913
lfemur -13.2769 -4.25585 -12.5039
ltibia 30.4622
lfoot -3.57227 9.87294
ltoes 4.1779
51
root -9.1823 17.8587 -9.42508 -33.2836 -81.7805 30.9662
lowerback 12.8544 2.44214 1.43559
upperback 0.85437 3.38271 -0.370587
thorax -6.19697 1.59456 -1.80208
lowerneck -19.8914 6.2426 -6.63017
upperneck 40.181 9.92337 3.50638
head 17.6171 3.10778 4.63705
rclavicle -3.60297e-014 7.15625e-015
rhumerus -34.9553 -20.0625 -67.4036
rradius 30.1389
rwrist 3.05155
rhand -18.7527 8.28817
rfingers 7.12502
rthumb 7.54385 -21.5573
lclavicle -3.60297e-014 7.15625e-015
lhumerus -33.4936 16.7721 76.1664
lradius 30.0009
lwrist -7.4297
lhand -19.2529 22.6438
lfingers 7.12502
lthumb 7.06103 52.506
rfemur 1.54339 -0.363221 15.9936
rtibia 25.2481
rfoot -18.5998 -9.76142
rtoes 1.62556
lfemur -13.0406 -4.3949 -11.8392
ltibia 29.8255
lfoot -2.41148 9.42339
ltoes 4.52132
52
root -9.19071 17.8648 -9.34455 -32.536 -81.8066 30.2228
lowerback 12.8575 2.42303 1.58388
upperback 0.842898 3.38004 -0.358096
thorax -6.2031 1.5893 -1.87221
lowerneck -19.8931 6.22903 -6.51313
upperneck 40.0649 9.9293 3.33278
head 17.5783 3.11092 4.53398
rclavicle -3.96575e-014 2.14687e-014
rhumerus -34.9179 -19.5769 -67.562
rradius 30.1846
rwrist 2.93944
rhand -19.1449 8.09701
rfingers 7.12502
rthumb 7.1653 -21.7617
lclavicle -3.96575e-014 2.14687e-014
lhumerus -33.5961 17.1605 75.9493
lradius 29.7595
lwrist -7.38421
lhand -19.4338 22.6936
lfingers 7.12502
lthumb 6.88643 52.5616
rfemur 1.77431 -0.390019 15.8245
rtibia 24.9103
rfoot -18.3622 -9.83659
rtoes 0.830685
lfemur -12.8956 -4.46486 -11.095
ltibia 29.2093
lfoot -1.35391 9.03027
ltoes 5.44728
53
root -9.20194 17.8677 -9.26123 -32.7149 -81.7745 30.4572
lowerback 12.7922 2.43337 1.62317
upperback 0.827161 3.3956 -0.414518
thorax -6.17692 1.59586 -1.95341
lowerneck -19.8226 6.12137 -6.44092
upperneck 39.8294 9.77814 3.2012
head 17.4594 3.06185 4.41706
rclavicle 1.04859e-014 -1.59028e-015
rhumerus -34.929 -19.4042 -67.606
rradius 30.1912
rwrist 3.30729
rhand -19.36 8.26816
rfingers 7.12502
rthumb 6.9576 -21.5975
lclavicle 1.04859e-014 -1.59028e-015
lhumerus -33.6844 17.3647 75.7369
lradius 29.5665
lwrist -7.17458
lhand -19.6073 22.8449
lfingers 7.12502
lthumb 6.71891 52.7183
rfemur 1.96187 -0.304628 15.4784
rtibia 24.5852
rfoot -18.1926 -9.79991
rtoes 0.799654
lfemur -12.7446 -4.77961 -10.517
ltibia 28.6125
lfoot -0.556676 8.86963
ltoes 6.69614
54
root -9.21156 17.8662 -9.17748 -32.2994 -81.8383 30.0564
lowerback 12.7753 2.45052 1.80821
upperback 0.798601 3.44113 -0.484459
thorax -6.18056 1.61226 -2.13874
lowerneck -19.786 6.01638 -6.41689
upperneck 39.6748 9.57708 3.25774
head 17.3758 3.0072 4.39063
rclavicle -2.49972e-014 9.54166e-015
rhumerus -34.9875 -19.4685 -67.6867
rradius 30.1296
rwrist 4.14508
rhand -18.9816 8.4258
rfingers 7.12502
rthumb 7.32289 -21.4275
lclavicle -2.49972e-014 9.54166e-015
lhumerus -33.7619 17.5647 75.4359
lradius 29.3071
lwrist -7.1453
lhand -19.6703 22.6893
lfingers 7.12502
lthumb 6.65812 52.5646
rfemur 2.14166 -0.171926 15.2879
rtibia 24.3128
rfoot -18.039 -9.8083
rtoes 0.504954
lfemur -12.5082 -5.30067 -9.76864
ltibia 28.0001
lfoot 0.0747399 9.10718
ltoes 8.97185
